<svg width="27" height="26" viewBox="0 0 27 26" fill="none" xmlns="http://www.w3.org/2000/svg">
<g id="Icon Presentation">
<g id="Icon Presentation_2">
<g id="Group">
<path id="Vector" d="M25.5929 1.81394H1.40708C0.911266 1.81394 0.500107 1.40278 0.500107 0.906969C0.500107 0.411159 0.911266 0 1.40708 0H25.5929C26.0887 0 26.4999 0.411159 26.4999 0.906969C26.4999 1.40278 26.0887 1.81394 25.5929 1.81394Z" fill="white"/>
<path id="Vector_2" d="M19.1478 25.504C18.9906 25.8184 18.664 25.9998 18.3375 25.9998C18.2045 25.9998 18.0594 25.9635 17.9385 25.9031L13.5004 23.6901L9.06222 25.9031C8.94129 25.9635 8.79618 25.9998 8.66315 25.9998C8.33664 25.9998 8.01013 25.8184 7.85293 25.504C7.62316 25.0445 7.80456 24.5003 8.26409 24.2826L12.5934 22.118V19.0464H14.4073V22.118L18.7366 24.2826C19.1961 24.5003 19.3775 25.0445 19.1478 25.504Z" fill="white"/>
<path id="Vector_3" d="M2.61636 0.906982V15.5394C2.61636 17.8371 3.82566 19.0464 6.12331 19.0464H20.8767C23.1743 19.0464 24.3836 17.8371 24.3836 15.5394V0.906982H2.61636ZM19.5223 8.86412L15.713 12.0446C15.3623 12.3348 14.9149 12.4557 14.4916 12.3832C14.0563 12.3106 13.6814 12.0446 13.4516 11.6576L12.1819 9.54133L8.63864 12.492C8.46934 12.6371 8.26376 12.6976 8.05818 12.6976C7.80423 12.6976 7.53818 12.5887 7.35679 12.3711C7.03028 11.9841 7.09074 11.4157 7.47772 11.0892L11.287 7.90878C11.6377 7.61855 12.0851 7.49762 12.5084 7.57018C12.9437 7.64274 13.3186 7.90878 13.5484 8.29576L14.8181 10.412L18.3613 7.46135C18.7483 7.13484 19.3167 7.1953 19.6432 7.58228C19.9576 7.96925 19.9092 8.53762 19.5223 8.86412Z" fill="white"/>
</g>
</g>
</g>
</svg>
