<svg width="31" height="30" viewBox="0 0 31 30" fill="none" xmlns="http://www.w3.org/2000/svg">
<g id="Icon Check">
<path id="Vector" d="M15.5 0C7.23501 0 0.500031 6.73498 0.500031 15C0.500031 23.2649 7.23501 29.9999 15.5 29.9999C23.765 29.9999 30.4999 23.2649 30.4999 15C30.4999 6.73498 23.765 0 15.5 0ZM22.67 11.55L14.165 20.0549C13.955 20.2649 13.67 20.3849 13.37 20.3849C13.07 20.3849 12.785 20.2649 12.575 20.0549L8.33001 15.81C7.89501 15.375 7.89501 14.655 8.33001 14.22C8.76501 13.785 9.48501 13.785 9.92 14.22L13.37 17.67L21.08 9.95997C21.515 9.52497 22.235 9.52497 22.67 9.95997C23.105 10.395 23.105 11.1 22.67 11.55Z" fill="white"/>
</g>
</svg>
