<svg width="25" height="24" viewBox="0 0 25 24" fill="none" xmlns="http://www.w3.org/2000/svg">
<path d="M17.7463 0H7.26612C2.71385 0 0 2.604 0 6.972V17.016C0 21.396 2.71385 24 7.26612 24H17.7338C22.2861 24 25 21.396 25 17.028V6.972C25.0125 2.604 22.2986 0 17.7463 0ZM11.1931 18.612C10.8304 18.96 10.1426 19.296 9.64231 19.368L6.56577 19.788C6.45322 19.8 6.34066 19.812 6.2281 19.812C5.71535 19.812 5.24011 19.644 4.90244 19.32C4.48974 18.924 4.31465 18.348 4.4147 17.712L4.85242 14.76C4.92746 14.268 5.26512 13.62 5.64031 13.272L11.2181 7.92C11.3181 8.172 11.4182 8.424 11.5558 8.712C11.6808 8.964 11.8184 9.228 11.9685 9.468C12.0935 9.672 12.2311 9.864 12.3437 10.008C12.4812 10.212 12.6438 10.404 12.7438 10.512C12.8064 10.596 12.8564 10.656 12.8814 10.68C13.1941 11.04 13.5568 11.376 13.8694 11.628C13.957 11.712 14.007 11.76 14.032 11.772C14.2196 11.916 14.4072 12.06 14.5698 12.168C14.7699 12.312 14.97 12.444 15.1826 12.552C15.4327 12.696 15.7078 12.828 15.983 12.96C16.2706 13.08 16.5332 13.188 16.7959 13.272L11.1931 18.612ZM19.2221 10.908L18.0715 12.024C17.9965 12.096 17.8964 12.132 17.7964 12.132C17.7589 12.132 17.7088 12.132 17.6838 12.12C15.145 11.424 13.119 9.48 12.3937 7.044C12.3562 6.912 12.3937 6.768 12.4937 6.684L13.6568 5.568C15.5578 3.744 17.3712 3.78 19.2346 5.568C20.1851 6.48 20.6478 7.356 20.6478 8.268C20.6353 9.132 20.1726 9.996 19.2221 10.908Z" fill="white"/>
</svg>
